<svg width="222" height="32" viewBox="0 0 222 32" fill="none" xmlns="http://www.w3.org/2000/svg" style="color-scheme: light dark;">
<g clip-path="url(#clip0_4169_332698)">
<path fill-rule="evenodd" clip-rule="evenodd" d="M0.934753 26.5217C0.934753 26.7138 1.09048 26.8695 1.28258 26.8695H6.43143C7.13999 26.8695 7.80014 26.51 8.18456 25.9148L9.37799 24.0669C9.52746 23.8355 9.36132 23.5304 9.0858 23.5304H1.28258C1.09048 23.5304 0.934753 23.6861 0.934753 23.8782V26.5217ZM1.28258 22.1391C1.09048 22.1391 0.934753 21.9833 0.934753 21.7912V19.2347C0.934753 19.0426 1.09048 18.8869 1.28258 18.8869H12.0847C12.3603 18.8869 12.5264 19.192 12.3769 19.4234L10.7258 21.98C10.6618 22.0792 10.5517 22.1391 10.4336 22.1391H1.28258ZM21.4915 24.0669C21.3421 23.8355 21.5082 23.5304 21.7837 23.5304H29.5869C29.779 23.5304 29.9348 23.3746 29.9348 23.1826V22.4869C29.9348 22.2948 29.779 22.1391 29.5869 22.1391H20.4359C20.3178 22.1391 20.2078 22.0792 20.1437 21.98L18.4926 19.4234C18.3431 19.192 18.5093 18.8869 18.7848 18.8869H29.5869C29.779 18.8869 29.9348 18.7312 29.9348 18.5391V17.8434C29.9348 17.6513 29.779 17.4956 29.5869 17.4956H17.4369C17.3189 17.4956 17.2088 17.4357 17.1448 17.3365L16.3192 16.0582C16.245 15.9433 16.245 15.7957 16.3192 15.6808L17.1448 14.4025C17.2088 14.3033 17.3189 14.2434 17.4369 14.2434H29.5869C29.779 14.2434 29.9348 14.0877 29.9348 13.8956V13.1999C29.9348 13.0078 29.779 12.8521 29.5869 12.8521H18.7848C18.5093 12.8521 18.3431 12.547 18.4926 12.3156L20.1437 9.75906C20.2078 9.65986 20.3178 9.59994 20.4359 9.59994H29.5869C29.779 9.59994 29.9348 9.44422 29.9348 9.25212V8.55646C29.9348 8.36437 29.779 8.20864 29.5869 8.20864H21.7837C21.5082 8.20864 21.3421 7.90355 21.4915 7.67211L22.685 5.82423C23.0694 5.22902 23.7295 4.86951 24.4381 4.86951H29.5869C29.779 4.86951 29.9348 5.02523 29.9348 5.21733V15.8695V26.5217C29.9348 26.7138 29.779 26.8695 29.5869 26.8695H24.4381C23.7295 26.8695 23.0694 26.51 22.685 25.9148L21.4915 24.0669ZM0.934753 17.1478C0.934753 17.3399 1.09048 17.4956 1.28258 17.4956H13.4326C13.5507 17.4956 13.6607 17.4357 13.7248 17.3365L14.5503 16.0582C14.6245 15.9433 14.6245 15.7957 14.5503 15.6808L13.7248 14.4025C13.6607 14.3033 13.5507 14.2434 13.4326 14.2434H1.28258C1.09048 14.2434 0.934753 14.3991 0.934753 14.5912V15.8695V17.1478ZM1.28258 12.8521C1.09048 12.8521 0.934753 12.6964 0.934753 12.5043V9.94777C0.934753 9.75567 1.09048 9.59994 1.28258 9.59994H10.4336C10.5517 9.59994 10.6618 9.65986 10.7258 9.75906L12.3769 12.3156C12.5264 12.547 12.3603 12.8521 12.0847 12.8521H1.28258ZM0.934753 7.86081C0.934753 8.05291 1.09048 8.20864 1.28258 8.20864H9.0858C9.36132 8.20864 9.52746 7.90355 9.37798 7.67211L8.18456 5.82423C7.80014 5.22902 7.13999 4.86951 6.43143 4.86951H1.28258C1.09048 4.86951 0.934753 5.02523 0.934753 5.21733V7.86081Z" fill="currentColor"/>
</g>
<path d="M43.2542 26V6.52174H48.1238L55.5812 18.7652H55.7481V6.52174H60.0055V26H55.1081L47.6786 13.7565H47.5116V26H43.2542ZM62.4607 26V6.52174H66.8573V26H62.4607ZM78.601 26.3617C72.507 26.3617 68.3331 22.0209 68.3331 16.2609C68.3331 10.5287 72.5349 6.16 78.601 6.16C83.721 6.16 87.3105 9.27652 88.2566 13.3113H83.387C82.747 11.6417 81.0218 10.3896 78.601 10.3896C75.1505 10.3896 72.8966 12.9217 72.8966 16.2609C72.8966 19.6835 75.1505 22.2435 78.601 22.2435C81.3557 22.2435 83.3592 20.7687 83.721 18.9878H78.4062V15.3704H88.6184C88.8688 22.2157 84.7505 26.3617 78.601 26.3617ZM90.2488 26V6.52174H94.6453V14.0626H102.409V6.52174H106.833V26H102.409V18.2922H94.6453V26H90.2488ZM113.522 26V10.3339H108.096V6.52174H123.401V10.3339H117.947V26H113.522ZM128.771 26L123.707 6.52174H128.521L131.359 19.1826H131.582L134.476 6.52174H139.902L142.823 19.1826H143.046L145.884 6.52174H150.698L145.634 26H140.43L137.314 12.8383H137.091L133.947 26H128.771ZM148.701 26L155.324 6.52174H160.945L167.651 26H162.976L161.807 22.5496H154.35L153.209 26H148.701ZM155.547 18.6261H160.611L158.218 11.3635H157.967L155.547 18.6261ZM171.224 26V10.3339H165.797V6.52174H181.102V10.3339H175.648V26H171.224ZM191.258 26.3617C185.164 26.3617 181.018 22.0209 181.018 16.2609C181.018 10.5287 185.192 6.16 191.258 6.16C196.545 6.16 200.107 9.4713 200.941 13.7565H196.155C195.627 11.8365 193.762 10.3896 191.258 10.3896C187.891 10.3896 185.581 12.9217 185.581 16.2609C185.581 19.6557 187.891 22.1322 191.258 22.1322C193.762 22.1322 195.599 20.713 196.322 18.8487H201.136C200.301 23.1339 196.489 26.3617 191.258 26.3617ZM202.743 26V6.52174H207.14V14.0626H214.903V6.52174H219.328V26H214.903V18.2922H207.14V26H202.743Z" fill="currentColor"/>
<defs>
<clipPath id="clip0_4169_332698">
<rect x="0.934753" y="4.86951" width="29.2174" height="22.2609" rx="1.3913" fill="currentColor"/>
</clipPath>
</defs>
</svg>
